<svg xmlns="http://www.w3.org/2000/svg" viewBox="0 0 512 512" role="img" aria-label="识花定位图标">
  <rect width="512" height="512" rx="112" fill="#f4f0e6"/>
  <path d="M256 438c64-73 112-133 112-207 0-62-50-112-112-112s-112 50-112 112c0 74 48 134 112 207z" fill="#4f6f52"/>
  <circle cx="256" cy="229" r="64" fill="#fffdf8"/>
  <path d="M256 164c18 36 18 93 0 129-18-36-18-93 0-129z" fill="#c35d67"/>
  <path d="M191 229c36-18 93-18 130 0-37 18-94 18-130 0z" fill="#d5a03a"/>
  <path d="M210 183c38 13 79 54 92 92-38-13-79-54-92-92z" fill="#708c57"/>
  <path d="M302 183c-13 38-54 79-92 92 13-38 54-79 92-92z" fill="#708c57"/>
</svg>
